:FULLY-SPECIFIED
:FORCE-ALL-JOINTS-BE-3DOF
:DEGREES
372
root 9.33758 17.0728 16.2599 6.17354 3.60645 -3.18944
lfemur -35.9507 5.45332 -17.8516
ltibia 54.6217 0 0
lfoot -14.9753 11.7314 0
ltoes -3.78655 0 0
rfemur -12.1658 6.17067 29.281
rtibia 28.4546 0 0
rfoot -19.2442 3.16828 0
rtoes -14.4408 0 0
lowerback -5.75999 0.478098 0.230636
upperback -0.655703 0.547791 2.80804
thorax 2.52946 0.264325 2.80933
lowerneck -19.9721 -6.24182 -12.474
upperneck 21.5013 -8.09571 12.5387
head 11.3539 -3.23862 5.41961
lclavicle -2.15644e-15 8.78428e-15 0
lhumerus -46.9428 -17.535 97.4493
lradius 28.193 0 0
lwrist 12.0415 0 0
lhand -14.5015 -22.3782 0
lfingers 7.12502 0 0
lthumb 11.6455 7.27773 0
rclavicle -2.15644e-15 8.78428e-15 0
rhumerus -32.7755 18.3525 -83.9442
rradius 44.4026 0 0
rwrist -23.2527 0 0
rhand -31.3207 -23.9519 0
rfingers 7.12502 0 0
rthumb -4.59282 -53.8821 0
373
root 9.33553 17.0711 16.2112 6.20458 3.72204 -3.12444
lfemur -35.7151 5.4973 -17.8881
ltibia 55.1608 0 0
lfoot -14.928 11.8154 0
ltoes -3.24045 0 0
rfemur -12.5453 6.16655 29.1828
rtibia 28.751 0 0
rfoot -19.2392 3.15822 0
rtoes -14.1518 0 0
lowerback -5.76685 0.424179 0.180414
upperback -0.679561 0.480195 2.78835
thorax 2.51135 0.230361 2.81161
lowerneck -19.9861 -6.24637 -12.4559
upperneck 21.49 -8.1014 12.524
head 11.3516 -3.24089 5.4093
lclavicle -9.19379e-16 1.07344e-14 0
lhumerus -46.8679 -17.7878 97.599
lradius 28.256 0 0
lwrist 12.1942 0 0
lhand -14.627 -22.3701 0
lfingers 7.12502 0 0
lthumb 11.5245 7.29306 0
rclavicle -9.19379e-16 1.07344e-14 0
rhumerus -32.9454 18.3189 -83.9713
rradius 44.3713 0 0
rwrist -23.2521 0 0
rhand -31.2908 -23.7895 0
rfingers 7.12502 0 0
rthumb -4.56391 -53.7204 0
374
root 9.34384 17.0768 16.3708 6.12316 3.33662 -3.31586
lfemur -36.4654 5.33216 -17.7855
ltibia 53.2819 0 0
lfoot -15 11.5977 0
ltoes -4.3939 0 0
rfemur -11.3509 6.14443 29.4618
rtibia 27.8209 0 0
rfoot -19.2456 3.27771 0
rtoes -14.8261 0 0
lowerback -5.76115 0.616806 0.333135
upperback -0.608015 0.72383 2.84401
thorax 2.57189 0.352552 2.8036
lowerneck -20.0041 -6.25375 -12.4168
upperneck 21.5857 -8.10768 12.4349
head 11.3854 -3.24952 5.3704
lclavicle -4.62738e-15 9.18922e-15 0
lhumerus -47.1245 -17.0647 97.2109
lradius 28.0138 0 0
lwrist 11.7689 0 0
lhand -14.401 -22.4042 0
lfingers 7.12502 0 0
lthumb 11.7424 7.24565 0
rclavicle -4.62738e-15 9.18922e-15 0
rhumerus -32.3849 18.3644 -83.8461
rradius 44.4842 0 0
rwrist -23.2713 0 0
rhand -31.4598 -23.9606 0
rfingers 7.12502 0 0
rthumb -4.72712 -53.8881 0
375
root 9.35416 17.0848 16.5737 6.01274 2.85526 -3.57681
lfemur -37.284 5.12691 -17.588
ltibia 50.7632 0 0
lfoot -15.0025 11.227 0
ltoes -6.40582 0 0
rfemur -9.73882 6.10552 29.8355
rtibia 26.4766 0 0
rfoot -19.1666 3.38232 0
rtoes -15.8734 0 0
lowerback -5.76467 0.849728 0.531887
upperback -0.5113 1.01645 2.92629
thorax 2.66257 0.499311 2.80214
lowerneck -19.9879 -6.24895 -12.4444
upperneck 21.6683 -8.09919 12.4256
head 11.4127 -3.24919 5.37631
lclavicle -9.39074e-15 4.57944e-15 0
lhumerus -47.3824 -16.0674 96.6608
lradius 27.6644 0 0
lwrist 11.0922 0 0
lhand -14.025 -22.4562 0
lfingers 7.12502 0 0
lthumb 12.1049 7.17163 0
rclavicle -9.39074e-15 4.57944e-15 0
rhumerus -31.7007 18.3847 -83.7078
rradius 44.555 0 0
rwrist -23.2635 0 0
rhand -31.6302 -24.422 0
rfingers 7.12502 0 0
rthumb -4.89168 -54.3458 0
376
root 9.36428 17.0935 16.7774 5.89266 2.37535 -3.85325
lfemur -38.0444 4.92634 -17.3538
ltibia 48.1797 0 0
lfoot -14.9633 10.8061 0
ltoes -8.72993 0 0
rfemur -8.0687 6.06272 30.2293
rtibia 25.0497 0 0
rfoot -19.0533 3.45867 0
rtoes -17.0463 0 0
lowerback -5.76743 1.07784 0.739052
upperback -0.409467 1.30174 3.01652
thorax 2.75898 0.64245 2.80374
lowerneck -19.9569 -6.23735 -12.5083
upperneck 21.735 -8.08235 12.4644
head 11.4341 -3.24326 5.40805
lclavicle -1.44399e-14 -1.5654e-15 0
lhumerus -47.6026 -15.0156 96.0682
lradius 27.2902 0 0
lwrist 10.3318 0 0
lhand -13.5839 -22.509 0
lfingers 7.12502 0 0
lthumb 12.5302 7.09302 0
rclavicle -1.44399e-14 -1.5654e-15 0
rhumerus -31.0241 18.3948 -83.5787
rradius 44.5947 0 0
rwrist -23.2472 0 0
rhand -31.7822 -25.025 0
rfingers 7.12502 0 0
rthumb -5.03847 -54.9453 0
377
root 9.372 17.1014 16.9395 5.78225 1.99428 -4.09118
lfemur -38.6204 4.77521 -17.1412
ltibia 46.1064 0 0
lfoot -14.9103 10.4374 0
ltoes -10.82 0 0
rfemur -6.7002 6.0289 30.5685
rtibia 23.8716 0 0
rfoot -18.9563 3.49339 0
rtoes -18.0971 0 0
lowerback -5.7595 1.25604 0.917012
upperback -0.322565 1.52338 3.09605
thorax 2.83673 0.753776 2.80489
lowerneck -19.9303 -6.22438 -12.5782
upperneck 21.7829 -8.06358 12.5193
head 11.4502 -3.23506 5.44666
lclavicle -1.90051e-14 -7.71576e-15 0
lhumerus -47.7459 -14.1289 95.553
lradius 26.9732 0 0
lwrist 9.65556 0 0
lhand -13.1627 -22.5455 0
lfingers 7.12502 0 0
lthumb 12.9363 7.03183 0
rclavicle -1.90051e-14 -7.71576e-15 0
rhumerus -30.4861 18.4094 -83.4807
rradius 44.614 0 0
rwrist -23.2413 0 0
rhand -31.896 -25.621 0
rfingers 7.12502 0 0
rthumb -5.14833 -55.5386 0
378
root 9.37511 17.1069 17.0175 5.70084 1.80942 -4.23657
lfemur -38.8856 4.71828 -17.0084
ltibia 45.1182 0 0
lfoot -14.8714 10.2235 0
ltoes -12.1297 0 0
rfemur -5.99296 6.01697 30.7785
rtibia 23.2739 0 0
rfoot -18.9266 3.4731 0
rtoes -18.7784 0 0
lowerback -5.7309 1.33922 1.02815
upperback -0.270645 1.62503 3.14619
thorax 2.8714 0.805101 2.80207
lowerneck -19.9276 -6.21545 -12.6238
upperneck 21.8092 -8.0493 12.5585
head 11.4616 -3.22795 5.47316
lclavicle -2.23169e-14 -1.23421e-14 0
lhumerus -47.773 -13.6272 95.2348
lradius 26.7956 0 0
lwrist 9.23126 0 0
lhand -12.8464 -22.5488 0
lfingers 7.12502 0 0
lthumb 13.2413 7.01005 0
rclavicle -2.23169e-14 -1.23421e-14 0
rhumerus -30.218 18.4432 -83.4359
rradius 44.624 0 0
rwrist -23.2643 0 0
rhand -31.9517 -26.0611 0
rfingers 7.12502 0 0
rthumb -5.20215 -55.9773 0
379
root 9.37139 17.1082 16.9688 5.66776 1.91817 -4.23539
lfemur -38.7135 4.80031 -17.0136
ltibia 45.7901 0 0
lfoot -14.8744 10.2669 0
ltoes -12.1128 0 0
rfemur -6.30664 6.0398 30.7847
rtibia 23.5881 0 0
rfoot -19.015 3.3844 0
rtoes -18.8427 0 0
lowerback -5.67169 1.28228 1.03485
upperback -0.273756 1.55038 3.14829
thorax 2.83859 0.768233 2.79179
lowerneck -19.9681 -6.21595 -12.6145
upperneck 21.8109 -8.04593 12.55
head 11.4688 -3.22526 5.4686
lclavicle -2.36057e-14 -1.39149e-14 0
lhumerus -47.6448 -13.7301 95.2333
lradius 26.8395 0 0
lwrist 9.22672 0 0
lhand -12.7198 -22.5018 0
lfingers 7.12502 0 0
lthumb 13.3633 7.0497 0
rclavicle -2.36057e-14 -1.39149e-14 0
rhumerus -30.3509 18.5109 -83.4663
rradius 44.6354 0 0
rwrist -23.335 0 0
rhand -31.9296 -26.1967 0
rfingers 7.12502 0 0
rthumb -5.18078 -56.1134 0
380
root 9.38253 17.1068 17.1304 5.71527 1.56504 -4.31722
lfemur -39.2092 4.55429 -16.8962
ltibia 43.5665 0 0
lfoot -14.8285 10.0518 0
ltoes -12.8737 0 0
rfemur -5.13184 5.97575 30.8724
rtibia 22.4233 0 0
rfoot -18.7188 3.59658 0
rtoes -18.9592 0 0
lowerback -5.81607 1.46061 1.07586
upperback -0.239408 1.77947 3.1713
thorax 2.94559 0.881938 2.81835
lowerneck -19.8553 -6.2079 -12.6851
upperneck 21.8014 -8.04448 12.6247
head 11.4502 -3.22581 5.51055
lclavicle -2.20291e-14 -1.27176e-14 0
lhumerus -47.9716 -13.2419 95.0993
lradius 26.6528 0 0
lwrist 9.03997 0 0
lhand -12.8644 -22.6064 0
lfingers 7.12502 0 0
lthumb 13.2239 6.95357 0
rclavicle -2.20291e-14 -1.27176e-14 0
rhumerus -29.8989 18.3291 -83.3807
rradius 44.5609 0 0
rwrist -23.1423 0 0
rhand -31.9929 -26.0751 0
rfingers 7.12502 0 0
rthumb -5.24191 -55.9904 0
381
root 9.39784 17.1015 17.3347 5.82908 1.13545 -4.37392
lfemur -39.7713 4.20609 -16.7571
ltibia 40.6893 0 0
lfoot -14.7642 9.83299 0
ltoes -13.4308 0 0
rfemur -3.69289 5.88515 30.9012
rtibia 20.9148 0 0
rfoot -18.2474 3.92251 0
rtoes -18.7626 0 0
lowerback -6.0528 1.68237 1.08516
upperback -0.212657 2.066 3.18389
thorax 3.09406 1.02375 2.86102
lowerneck -19.6807 -6.19836 -12.7869
upperneck 21.7613 -8.04701 12.7426
head 11.4124 -3.22805 5.57335
lclavicle -1.80784e-14 -9.041e-15 0
lhumerus -48.4398 -12.7683 95.0671
lradius 26.4676 0 0
lwrist 8.97376 0 0
lhand -13.2214 -22.7504 0
lfingers 7.12502 0 0
lthumb 12.8797 6.83038 0
rclavicle -1.80784e-14 -9.041e-15 0
rhumerus -29.3646 18.0206 -83.284
rradius 44.4079 0 0
rwrist -22.8239 0 0
rhand -32.0458 -25.6835 0
rfingers 7.12502 0 0
rthumb -5.293 -55.5975 0
382
root 9.41378 17.0945 17.5388 5.97355 0.710066 -4.39972
lfemur -40.3111 3.84112 -16.6354
ltibia 37.7682 0 0
lfoot -14.6918 9.63146 0
ltoes -13.7825 0 0
rfemur -2.28585 5.78676 30.8811
rtibia 19.3997 0 0
rfoot -17.7338 4.27833 0
rtoes -18.4143 0 0
lowerback -6.32076 1.9038 1.06634
upperback -0.196014 2.3536 3.18587
thorax 3.24924 1.1658 2.90985
lowerneck -19.4842 -6.18817 -12.8956
upperneck 21.7071 -8.05122 12.8733
head 11.3663 -3.23095 5.64165
lclavicle -1.28604e-14 -4.14962e-15 0
lhumerus -48.9378 -12.3607 95.1007
lradius 26.3005 0 0
lwrist 8.98532 0 0
lhand -13.6854 -22.9131 0
lfingers 7.12502 0 0
lthumb 12.4323 6.6948 0
rclavicle -1.28604e-14 -4.14962e-15 0
rhumerus -28.8486 17.6716 -83.1903
rradius 44.2349 0 0
rwrist -22.4674 0 0
rhand -32.0858 -25.1803 0
rfingers 7.12502 0 0
rthumb -5.3316 -55.0933 0
383
root 9.4268 17.0881 17.7004 6.11299 0.369569 -4.38885
lfemur -40.7399 3.54483 -16.5701
ltibia 35.4127 0 0
lfoot -14.6216 9.46815 0
ltoes -13.9269 0 0
rfemur -1.20681 5.69932 30.8225
rtibia 18.2146 0 0
rfoot -17.3105 4.58017 0
rtoes -18.0757 0 0
lowerback -6.55884 2.08115 1.023
upperback -0.191989 2.5859 3.17703
thorax 3.37638 1.28022 2.9549
lowerneck -19.3058 -6.17816 -12.9865
upperneck 21.6556 -8.05479 12.9865
head 11.3229 -3.23347 5.70015
lclavicle -7.48204e-15 6.92068e-16 0
lhumerus -49.354 -12.0702 95.1642
lradius 26.1678 0 0
lwrist 9.03189 0 0
lhand -14.1513 -23.0735 0
lfingers 7.12502 0 0
lthumb 11.9831 6.56154 0
rclavicle -7.48204e-15 6.92068e-16 0
rhumerus -28.4519 17.3682 -83.1134
rradius 44.1006 0 0
rwrist -22.1602 0 0
rhand -32.1103 -24.7237 0
rfingers 7.12502 0 0
rthumb -5.35525 -54.6361 0
384
root 9.43336 17.0845 17.7766 6.21174 0.194627 -4.33554
lfemur -40.9687 3.40265 -16.6002
ltibia 34.2326 0 0
lfoot -14.5639 9.36402 0
ltoes -13.8626 0 0
rfemur -0.751854 5.6416 30.7355
rtibia 17.6965 0 0
rfoot -17.1103 4.74418 0
rtoes -17.9081 0 0
lowerback -6.70591 2.17067 0.958734
upperback -0.203094 2.70651 3.15718
thorax 3.44073 1.33914 2.9862
lowerneck -19.1855 -6.16919 -13.0351
upperneck 21.6236 -8.0554 13.0518
head 11.2931 -3.23457 5.7335
lclavicle -3.04993e-15 4.21957e-15 0
lhumerus -49.5768 -11.9483 95.2219
lradius 26.0859 0 0
lwrist 9.0707 0 0
lhand -14.5136 -23.211 0
lfingers 7.12502 0 0
lthumb 11.6337 6.44528 0
rclavicle -3.04993e-15 4.21957e-15 0
rhumerus -28.2751 17.1967 -83.0675
rradius 44.0634 0 0
rwrist -21.9898 0 0
rhand -32.1168 -24.4721 0
rfingers 7.12502 0 0
rthumb -5.36152 -54.3843 0
